<?xml version="1.0" encoding="UTF-8"?>
<svg version="1.1" xmlns="http://www.w3.org/2000/svg" width="512" height="512">
<path d="M0 0 C1.47068788 -0.00346673 2.94137315 -0.00823803 4.41205311 -0.01418173 C8.40823639 -0.02658222 12.40420182 -0.02057198 16.40038538 -0.01122308 C20.72766167 -0.00438747 25.05490256 -0.014936 29.38217163 -0.02316284 C37.84147854 -0.03645459 46.30070529 -0.03364285 54.76001525 -0.02492492 C61.63930271 -0.01813076 68.51856781 -0.01723912 75.39785767 -0.02049637 C76.87035578 -0.02118592 76.87035578 -0.02118592 78.37260133 -0.0218894 C80.36726436 -0.02284864 82.36192738 -0.02382128 84.35659039 -0.02480717 C103.03035082 -0.03334771 121.70406697 -0.02354794 140.37782013 -0.00740607 C156.37682087 0.00599589 172.3757563 0.00366742 188.37475586 -0.01016235 C206.98484083 -0.02624181 225.59488704 -0.03252386 244.20497799 -0.02332556 C246.19202105 -0.02236998 248.17906411 -0.02142687 250.16610718 -0.02049637 C251.63233881 -0.01980213 251.63233881 -0.01980213 253.12819129 -0.01909386 C259.99372437 -0.01651107 266.85923272 -0.0208596 273.72476196 -0.02793503 C282.09940772 -0.03637656 290.4739692 -0.03401435 298.84860539 -0.0180928 C303.11582654 -0.01024565 307.38290752 -0.00705727 311.65012741 -0.01704025 C315.56590619 -0.02606204 319.48141652 -0.02093298 323.39717138 -0.0051076 C324.80411117 -0.00179114 326.21107424 -0.00338198 327.61799872 -0.01073496 C340.36668128 -0.07218623 352.81395148 1.48982146 364.59448242 6.63095093 C365.66617676 7.08872925 365.66617676 7.08872925 366.75952148 7.55575562 C372.66485238 10.16396577 377.76433519 13.30461112 382.78198242 17.38095093 C383.53922607 17.96852173 383.53922607 17.96852173 384.31176758 18.56796265 C403.17229266 33.20990692 415.01097491 53.77947366 418.78198242 77.38095093 C419.16822765 82.43905083 419.193385 87.47834126 419.16966248 92.5479126 C419.17384612 94.02527491 419.17932924 95.50263401 419.18598229 96.97998726 C419.20032053 100.99929534 419.19622899 105.01839634 419.18881547 109.0377152 C419.18405705 113.38820982 419.19661713 117.73866135 419.20683289 122.08914185 C419.22397399 130.59637461 419.22487068 139.10353337 419.21961998 147.61077891 C419.21556836 154.52965168 419.21703359 161.44850268 419.22236824 168.36737442 C419.22311666 169.35443732 419.22386508 170.34150022 419.22463619 171.35847411 C419.22616776 173.36408694 419.22770611 175.36969976 419.22925115 177.37531258 C419.24295918 196.15687376 419.23755041 214.93839322 419.22606594 233.71995343 C419.21613493 250.87692358 419.22907499 268.03378586 419.25300013 285.19073938 C419.27742165 302.83754471 419.28699153 320.48429987 419.28034741 338.13112175 C419.27686202 348.02646086 419.2790422 357.92171704 419.29659843 367.8170433 C419.31135862 376.2403765 419.31190612 384.66356837 419.29452752 393.08689891 C419.28604657 397.37858158 419.28379634 401.6700122 419.29917908 405.96168137 C419.31312349 409.90105759 419.30813964 413.83996816 419.28893984 417.77931811 C419.28520915 419.19370932 419.28801577 420.60813872 419.29855149 422.02249561 C419.4728552 447.24317043 409.22324747 470.3406056 391.78198242 488.38095093 C373.61114295 505.64907241 350.15018294 512.89039637 325.56396484 512.76190186 C324.09327696 512.76536858 322.62259169 512.77013989 321.15191174 512.77608359 C317.15572845 512.78848407 313.15976303 512.78247384 309.16357946 512.77312493 C304.83630317 512.76628933 300.50906229 512.77683785 296.18179321 512.7850647 C287.7224863 512.79835644 279.26325956 512.79554471 270.80394959 512.78682677 C263.92466214 512.78003261 257.04539703 512.77914098 250.16610718 512.78239822 C248.69360906 512.78308777 248.69360906 512.78308777 247.19136351 512.78379125 C245.19670049 512.78475049 243.20203747 512.78572314 241.20737445 512.78670903 C222.53361402 512.79524957 203.85989788 512.7854498 185.18614471 512.76930793 C169.18714397 512.75590597 153.18820855 512.75823444 137.18920898 512.77206421 C118.57912402 512.78814367 99.9690778 512.79442572 81.35898685 512.78522742 C79.3719438 512.78427184 77.38490073 512.78332873 75.39785767 512.78239822 C73.93162603 512.78170398 73.93162603 512.78170398 72.43577355 512.78099572 C65.57024048 512.77841292 58.70473212 512.78276146 51.83920288 512.78983688 C43.46455712 512.79827842 35.08999564 512.7959162 26.71535945 512.77999465 C22.4481383 512.7721475 18.18105733 512.76895913 13.91383743 512.77894211 C9.99805865 512.7879639 6.08254832 512.78283484 2.16679347 512.76700945 C0.75985368 512.76369299 -0.64710939 512.76528383 -2.05403388 512.77263682 C-24.73559096 512.88196658 -44.68808562 505.92777783 -62.21801758 491.38095093 C-62.79938477 490.9452478 -63.38075195 490.50954468 -63.97973633 490.06063843 C-80.15983407 477.46354601 -90.38183275 455.29500847 -93.21801758 435.38095093 C-93.30722859 433.28843405 -93.34875732 431.19354639 -93.35223866 429.09913158 C-93.3566965 427.85061356 -93.36115434 426.60209553 -93.36574727 425.31574363 C-93.36565799 423.93808058 -93.36546816 422.56041754 -93.3651886 421.18275452 C-93.36849014 419.71301245 -93.37221632 418.24327128 -93.37633008 416.77353126 C-93.38632556 412.73814298 -93.39006293 408.70276958 -93.39271939 404.66737068 C-93.39662983 400.31332068 -93.40620776 395.95928238 -93.41493225 391.60523987 C-93.43467754 381.09069761 -93.44476119 370.57615443 -93.45366004 360.06159827 C-93.4580468 355.10522618 -93.46341267 350.14885515 -93.46864891 345.1924839 C-93.48566055 328.70724427 -93.50015294 312.22200529 -93.50739765 295.73675823 C-93.50930743 291.46052232 -93.51122778 287.18428642 -93.51318359 282.90805054 C-93.51366733 281.84526274 -93.51415107 280.78247493 -93.51464947 279.68748144 C-93.52294313 262.48542071 -93.54826911 245.28342967 -93.58076427 228.08139934 C-93.61388335 210.40434193 -93.63185086 192.72731987 -93.63504189 175.05023128 C-93.63720268 165.13181379 -93.64588791 155.21349787 -93.67150307 145.2951107 C-93.69327652 136.84490998 -93.701228 128.3948355 -93.69153628 119.9446099 C-93.68701054 115.63867183 -93.68877634 111.33299388 -93.70829773 107.02709198 C-93.79974017 85.65164384 -93.5571387 66.78307998 -83.21801758 47.38095093 C-82.77844727 46.53403687 -82.33887695 45.6871228 -81.88598633 44.81454468 C-70.72798734 24.78159548 -51.8950435 10.37517744 -30.21801758 3.38095093 C-20.08369699 0.80041703 -10.46049994 -0.05466952 0 0 Z " fill="#00B856" transform="translate(93.218017578125,-0.380950927734375)"/>
<path d="M0 0 C2.27651215 -0.00407181 4.55302233 -0.00941709 6.82952881 -0.01593018 C12.97612068 -0.02953626 19.12256046 -0.02433311 25.26915479 -0.01479292 C31.72126483 -0.00716237 38.17336243 -0.01425124 44.62547302 -0.01895142 C56.14897289 -0.02474695 67.67239545 -0.01546395 79.19588321 -0.0001734 C89.6200434 0.01323072 100.04410333 0.01089604 110.46826172 -0.00292969 C122.60880551 -0.01902462 134.74927073 -0.02493909 146.88982719 -0.0160929 C153.30359072 -0.01143029 159.71728536 -0.01075265 166.13104439 -0.02070236 C172.16157996 -0.02940532 178.19192726 -0.02328937 184.22244263 -0.00601959 C186.42780686 -0.00207269 188.6331871 -0.00315777 190.83854485 -0.00980759 C202.04020334 -0.04045504 212.44342017 0.02211889 223.22827148 3.38818359 C224.43483398 3.75298828 225.64139648 4.11779297 226.88452148 4.49365234 C249.81935194 13.22022932 266.74680328 29.7766294 277.47827148 51.70068359 C282.37045078 63.92340178 283.81946282 75.84074865 283.71411133 88.90112305 C283.71626449 90.48167738 283.72015293 92.06223013 283.72561646 93.64277649 C283.73519599 97.88226249 283.72015384 102.12131832 283.69971037 106.36075234 C283.68196189 110.82384404 283.68566779 115.28692597 283.68643188 119.75004578 C283.68456749 127.23504714 283.6673163 134.71988487 283.63989258 142.20483398 C283.60839352 150.83347622 283.59789891 159.46194001 283.59936368 168.0906356 C283.60071859 177.32211847 283.58682184 186.5535335 283.56847048 195.78499579 C283.56422742 198.42748575 283.56279084 201.06996461 283.56199265 203.71245766 C283.55997078 207.87492359 283.54765644 212.0372422 283.52766037 216.19965935 C283.52186378 217.71890993 283.51934867 219.23817747 283.52051544 220.75743866 C283.5323832 245.63587259 275.88922382 267.00941015 258.59545898 285.14990234 C233.8391034 308.71535452 205.76358865 309.49273546 173.72112465 309.55684853 C169.80573967 309.56673934 165.89050038 309.59261176 161.97518444 309.61716747 C154.73705139 309.6622966 147.49900926 309.70060579 140.26074219 309.71411133 C135.17355822 309.72421354 130.08679439 309.7535573 124.99977684 309.79543114 C123.07860683 309.80767449 121.15737753 309.81287469 119.23616982 309.81063271 C116.55510115 309.80826839 113.87524054 309.83051824 111.19433594 309.8581543 C110.41654785 309.85155289 109.63875977 309.84495148 108.83740234 309.83815002 C100.21269085 309.98331501 93.26893285 314.08131199 86.16577148 318.63818359 C85.48482422 319.0696167 84.80387695 319.5010498 84.10229492 319.94555664 C77.36054561 324.24681657 70.71688029 328.69644403 64.07299805 333.14672852 C53.87513963 339.97422756 43.6346599 346.73659951 33.38830566 353.49105835 C31.42312604 354.78659117 29.45819652 356.08250347 27.49353027 357.3788147 C-4.70505979 378.62277577 -4.70505979 378.62277577 -16.77172852 377.38818359 C-20.35993832 376.04858527 -22.05098374 373.72264789 -23.87103271 370.35281372 C-26.97464432 363.27148545 -27.29973308 357.0424648 -27.16235352 349.38037109 C-27.15386383 347.5704216 -27.15386383 347.5704216 -27.14520264 345.72390747 C-27.12296951 341.90324753 -27.07279528 338.08355588 -27.02172852 334.26318359 C-27.00164674 331.65903055 -26.98339892 329.05486269 -26.96704102 326.45068359 C-26.92314749 320.09619146 -26.85636632 313.74225674 -26.77172852 307.38818359 C-27.5150795 307.26270645 -28.25843048 307.13722931 -29.02430725 307.00794983 C-30.00580246 306.83702316 -30.98729767 306.6660965 -31.99853516 306.48999023 C-32.96876114 306.32326309 -33.93898712 306.15653595 -34.93861389 305.98475647 C-38.98449589 305.13280949 -42.51327565 303.64240602 -46.20922852 301.82568359 C-46.93440674 301.47489746 -47.65958496 301.12411133 -48.40673828 300.76269531 C-68.10846025 290.90639006 -83.1341588 274.04625961 -90.77172852 253.38818359 C-93.62758685 244.51082058 -95.88792271 236.08900416 -95.91217041 226.72460938 C-95.91514153 226.08007592 -95.91811265 225.43554247 -95.92117381 224.7714777 C-95.92980096 222.62547041 -95.93136398 220.4795193 -95.93286133 218.33349609 C-95.93749392 216.7888426 -95.94251917 215.24419023 -95.94790649 213.69953918 C-95.96099404 209.51107193 -95.96746886 205.32262069 -95.97191715 201.1341362 C-95.97485507 198.51179543 -95.97896132 195.88945896 -95.98342133 193.26712036 C-95.99708952 185.04663394 -96.00675828 176.82615743 -96.01062322 168.60566044 C-96.01509598 159.14647282 -96.03261032 149.68743028 -96.06162381 140.22828674 C-96.08331911 132.89806834 -96.09333174 125.56789051 -96.09466434 118.23764038 C-96.09570719 113.86875825 -96.10150273 109.5000126 -96.11948395 105.13116455 C-96.13609991 101.01395806 -96.1380554 96.89698866 -96.12934494 92.77976036 C-96.12858161 91.27950081 -96.1328227 89.77922779 -96.14280319 88.27900124 C-96.30052596 63.06514982 -87.78433532 42.05351243 -70.34594727 23.85693359 C-50.08842721 4.40971434 -27.19408911 -0.08208083 0 0 Z " fill="#FEFEFE" transform="translate(161.771728515625,70.61181640625)"/>
<path d="M0 0 C1.42119141 0.74443359 1.42119141 0.74443359 2.87109375 1.50390625 C15.46645436 8.75366305 23.43502875 19.69711059 28.13671875 33.28515625 C31.31513927 46.96243187 29.5239489 62.02644726 22.75 74.25 C14.71110195 87.12230649 3.77290672 96.42901675 -11.19140625 100.08203125 C-22.73605683 102.53902142 -35.37237433 102.39365309 -46 97 C-46.76183594 96.649375 -47.52367187 96.29875 -48.30859375 95.9375 C-58.90458246 90.64868761 -66.50923691 82.36834451 -72 72 C-72.50789062 71.0821875 -73.01578125 70.164375 -73.5390625 69.21875 C-79.17286292 57.25872677 -79.37044203 41.17751544 -75 28.75 C-68.0411284 13.93559547 -57.07127765 3.27969902 -42 -3 C-41.11957031 -3.37382813 -40.23914063 -3.74765625 -39.33203125 -4.1328125 C-26.62606743 -7.43964013 -11.48938153 -6.3506708 0 0 Z " fill="#02B857" transform="translate(280,112)"/>
<path d="M0 0 C1.00093689 -0.00525696 2.00187378 -0.01051392 3.03314209 -0.01593018 C6.32840777 -0.02908915 9.62318677 -0.02040504 12.91845703 -0.01025391 C15.21859835 -0.01227613 17.51873904 -0.01518881 19.81887817 -0.01895142 C24.63549921 -0.0233695 29.45195311 -0.01696134 34.26855469 -0.00292969 C40.42751346 0.0141424 46.58607943 0.00432998 52.74502373 -0.01364708 C57.49438405 -0.02451518 62.2436521 -0.02102433 66.99301529 -0.0132637 C69.26310396 -0.01126907 71.53320114 -0.01369496 73.80327988 -0.02070236 C76.98366049 -0.02836439 80.16341567 -0.01664495 83.34375 0 C84.27287201 -0.00607269 85.20199402 -0.01214539 86.15927124 -0.0184021 C95.85433154 0.07508074 102.78314657 2.50640323 109.85205078 9.19287109 C114.75586321 14.71580213 116.93014633 20.91395242 116.91479492 28.23657227 C116.91471939 29.43759079 116.91464386 30.63860931 116.91456604 31.87602234 C116.90940475 33.17296524 116.90424347 34.46990814 116.89892578 35.80615234 C116.89706031 37.14707893 116.89563701 38.4880062 116.89463806 39.82893372 C116.89082309 43.35527433 116.88100152 46.88157364 116.86993408 50.40789795 C116.85969803 54.00744061 116.85513574 57.60698995 116.85009766 61.20654297 C116.83937833 68.26710833 116.82178978 75.32763892 116.80126953 82.38818359 C109.87126953 82.38818359 102.94126953 82.38818359 95.80126953 82.38818359 C95.78668701 80.71272461 95.77210449 79.03726563 95.75708008 77.31103516 C95.69915508 71.10118144 95.62192117 64.89169254 95.53881836 58.68212891 C95.5038886 55.99334994 95.4762629 53.30464231 95.45483398 50.61572266 C95.42133903 46.75311282 95.36902368 42.89114898 95.31298828 39.02880859 C95.30659836 37.82452209 95.30020844 36.6202356 95.29362488 35.37945557 C95.27383072 34.25859558 95.25403656 33.1377356 95.23364258 31.98291016 C95.22253952 30.99695862 95.21143646 30.01100708 95.19999695 28.99517822 C94.70275845 25.74408979 94.37231931 24.4936663 91.80126953 22.38818359 C88.7093938 21.7879431 85.65299118 21.85276843 82.51220703 21.88647461 C81.56073792 21.88107162 80.6092688 21.87566864 79.62896729 21.87010193 C76.47775349 21.85757471 73.32744621 21.87413248 70.17626953 21.89208984 C67.99055941 21.89193495 65.804849 21.89044756 63.61914062 21.88768005 C59.03584671 21.88629427 54.45286505 21.89888439 49.86962891 21.92163086 C43.9879481 21.95001578 38.10678635 21.94728044 32.22506714 21.93454075 C27.7109736 21.92759334 23.19700052 21.93536215 18.68292236 21.94779778 C16.51394106 21.9523214 14.34494686 21.95264116 12.17596436 21.94873238 C9.14714957 21.94582939 6.11905583 21.96228371 3.09033203 21.98413086 C2.18945862 21.97962921 1.28858521 21.97512756 0.3604126 21.9704895 C-0.46396301 21.98039413 -1.28833862 21.99029877 -2.13769531 22.00050354 C-2.85371918 22.00293344 -3.56974304 22.00536333 -4.3074646 22.00786686 C-6.77438178 22.50394195 -7.67004874 23.42359536 -9.19873047 25.38818359 C-9.6720151 27.98877406 -9.6720151 27.98877406 -9.63110352 30.96118164 C-9.65089767 32.10213791 -9.67069183 33.24309418 -9.69108582 34.41862488 C-9.69747574 35.64994644 -9.70386566 36.88126801 -9.71044922 38.14990234 C-9.72840042 39.41083206 -9.74635162 40.67176178 -9.7648468 41.97090149 C-9.80988471 45.31973873 -9.84215788 48.66820779 -9.86828613 52.01721191 C-9.89808813 55.43592645 -9.94461957 58.8544087 -9.98974609 62.27294922 C-10.07484755 68.97794142 -10.14158224 75.68289721 -10.19873047 82.38818359 C-17.12873047 82.38818359 -24.05873047 82.38818359 -31.19873047 82.38818359 C-31.31219694 74.60752553 -31.40371173 66.82732875 -31.45779133 59.04606819 C-31.48376181 55.43192658 -31.51892456 51.81838578 -31.57592773 48.20458984 C-31.63070347 44.70968698 -31.66024509 41.21535781 -31.67311668 37.72005844 C-31.68669946 35.7537008 -31.72565887 33.78757042 -31.76521301 31.82156372 C-31.76807639 22.56766367 -30.0071072 15.90306131 -23.98779297 8.76708984 C-23.27365234 8.16767578 -22.55951172 7.56826172 -21.82373047 6.95068359 C-21.11474609 6.33322266 -20.40576172 5.71576172 -19.67529297 5.07958984 C-13.12130806 0.60344558 -7.76065309 -0.05050317 0 0 Z " fill="#00B856" transform="translate(213.19873046875,219.61181640625)"/>
<path d="M0 0 C7.95676855 4.84503059 14.01163195 11.26165137 16.87109375 20.25390625 C19.09991727 31.95522975 16.64482112 40.72875011 10.27734375 50.38671875 C8.18619907 52.9869249 6.14223324 54.69255031 3.27734375 56.38671875 C2.48714844 56.86753906 1.69695312 57.34835938 0.8828125 57.84375 C-7.29492132 62.19004191 -15.51013787 62.78366772 -24.51953125 60.7578125 C-33.03751354 57.80826273 -39.60633765 52.13346376 -43.72265625 44.13671875 C-47.48390031 35.93511713 -48.47174015 26.72767139 -45.62890625 18.046875 C-41.16597186 8.63435646 -35.58862055 2.30137999 -25.8828125 -1.73046875 C-17.38831909 -4.10346691 -8.02053794 -3.8034165 0 0 Z " fill="#FDFEFD" transform="translate(270.72265625,130.61328125)"/>
<path d="M0 0 C0.88494141 -0.01224609 1.76988281 -0.02449219 2.68164062 -0.03710938 C3.52791016 -0.03904297 4.37417969 -0.04097656 5.24609375 -0.04296875 C6.02525146 -0.04707764 6.80440918 -0.05118652 7.60717773 -0.05541992 C9.5625 0.1875 9.5625 0.1875 11.5625 2.1875 C11.76106972 5.06092061 11.84078946 7.81611988 11.8125 10.6875 C11.82023437 11.47253906 11.82796875 12.25757813 11.8359375 13.06640625 C11.81580787 18.93419213 11.81580787 18.93419213 9.5625 21.1875 C7.71484375 21.44628906 7.71484375 21.44628906 5.5 21.453125 C4.30503906 21.45699219 4.30503906 21.45699219 3.0859375 21.4609375 C2.25320313 21.45320313 1.42046875 21.44546875 0.5625 21.4375 C-0.27023437 21.44523437 -1.10296875 21.45296875 -1.9609375 21.4609375 C-2.75757813 21.45835937 -3.55421875 21.45578125 -4.375 21.453125 C-5.10589844 21.45086914 -5.83679688 21.44861328 -6.58984375 21.44628906 C-8.4375 21.1875 -8.4375 21.1875 -10.4375 19.1875 C-10.68041992 17.32397461 -10.68041992 17.32397461 -10.66796875 15.08984375 C-10.66603516 14.28869141 -10.66410156 13.48753906 -10.66210938 12.66210938 C-10.64986328 11.82486328 -10.63761719 10.98761719 -10.625 10.125 C-10.62435547 9.28388672 -10.62371094 8.44277344 -10.62304688 7.57617188 C-10.55768132 -1.43701196 -8.00274309 0.00580329 0 0 Z " fill="#5F677E" transform="translate(284.4375,253.8125)"/>
<path d="M0 0 C3.12492251 -0.05791844 6.24970766 -0.09356746 9.375 -0.125 C10.26445312 -0.14175781 11.15390625 -0.15851563 12.0703125 -0.17578125 C12.92109375 -0.18222656 13.771875 -0.18867188 14.6484375 -0.1953125 C15.82672119 -0.21102295 15.82672119 -0.21102295 17.02880859 -0.22705078 C19 0 19 0 21 2 C21.19856972 4.87342061 21.27828946 7.62861988 21.25 10.5 C21.25773437 11.28503906 21.26546875 12.07007813 21.2734375 12.87890625 C21.25330787 18.74669213 21.25330787 18.74669213 19 21 C17.15234375 21.25878906 17.15234375 21.25878906 14.9375 21.265625 C13.74253906 21.26949219 13.74253906 21.26949219 12.5234375 21.2734375 C11.69070313 21.26570313 10.85796875 21.25796875 10 21.25 C9.16726563 21.25773437 8.33453125 21.26546875 7.4765625 21.2734375 C6.67992187 21.27085937 5.88328125 21.26828125 5.0625 21.265625 C4.33160156 21.26336914 3.60070312 21.26111328 2.84765625 21.25878906 C1 21 1 21 -1 19 C-1.1721221 16.1293534 -1.23223075 13.36747658 -1.1875 10.5 C-1.18685547 9.71496094 -1.18621094 8.92992187 -1.18554688 8.12109375 C-1.14046848 2.28093696 -1.14046848 2.28093696 0 0 Z " fill="#5F677D" transform="translate(275,312)"/>
<path d="M0 0 C3.12492251 -0.05791844 6.24970766 -0.09356746 9.375 -0.125 C10.26445312 -0.14175781 11.15390625 -0.15851563 12.0703125 -0.17578125 C12.92109375 -0.18222656 13.771875 -0.18867188 14.6484375 -0.1953125 C15.82672119 -0.21102295 15.82672119 -0.21102295 17.02880859 -0.22705078 C19 0 19 0 21 2 C21.19856972 4.87342061 21.27828946 7.62861988 21.25 10.5 C21.25773437 11.28503906 21.26546875 12.07007813 21.2734375 12.87890625 C21.25330787 18.74669213 21.25330787 18.74669213 19 21 C17.15234375 21.25878906 17.15234375 21.25878906 14.9375 21.265625 C13.74253906 21.26949219 13.74253906 21.26949219 12.5234375 21.2734375 C11.69070313 21.26570313 10.85796875 21.25796875 10 21.25 C9.16726562 21.25773437 8.33453125 21.26546875 7.4765625 21.2734375 C6.67992187 21.27085937 5.88328125 21.26828125 5.0625 21.265625 C4.33160156 21.26336914 3.60070312 21.26111328 2.84765625 21.25878906 C1 21 1 21 -1 19 C-1.1721221 16.1293534 -1.23223075 13.36747658 -1.1875 10.5 C-1.18685547 9.71496094 -1.18621094 8.92992187 -1.18554688 8.12109375 C-1.14046848 2.28093696 -1.14046848 2.28093696 0 0 Z " fill="#60687E" transform="translate(246,312)"/>
<path d="M0 0 C3.12492251 -0.05791844 6.24970766 -0.09356746 9.375 -0.125 C10.26445312 -0.14175781 11.15390625 -0.15851563 12.0703125 -0.17578125 C12.92109375 -0.18222656 13.771875 -0.18867188 14.6484375 -0.1953125 C15.82672119 -0.21102295 15.82672119 -0.21102295 17.02880859 -0.22705078 C19 0 19 0 21 2 C21.19856972 4.87342061 21.27828946 7.62861988 21.25 10.5 C21.25773437 11.28503906 21.26546875 12.07007813 21.2734375 12.87890625 C21.25330787 18.74669213 21.25330787 18.74669213 19 21 C17.15234375 21.25878906 17.15234375 21.25878906 14.9375 21.265625 C13.74253906 21.26949219 13.74253906 21.26949219 12.5234375 21.2734375 C11.69070313 21.26570313 10.85796875 21.25796875 10 21.25 C9.16726563 21.25773437 8.33453125 21.26546875 7.4765625 21.2734375 C6.67992187 21.27085937 5.88328125 21.26828125 5.0625 21.265625 C4.33160156 21.26336914 3.60070312 21.26111328 2.84765625 21.25878906 C1 21 1 21 -1 19 C-1.1721221 16.1293534 -1.23223075 13.36747658 -1.1875 10.5 C-1.18685547 9.71496094 -1.18621094 8.92992187 -1.18554688 8.12109375 C-1.14046848 2.28093696 -1.14046848 2.28093696 0 0 Z " fill="#5F677D" transform="translate(275,283)"/>
<path d="M0 0 C3.12492251 -0.05791844 6.24970766 -0.09356746 9.375 -0.125 C10.26445312 -0.14175781 11.15390625 -0.15851563 12.0703125 -0.17578125 C12.92109375 -0.18222656 13.771875 -0.18867188 14.6484375 -0.1953125 C15.82672119 -0.21102295 15.82672119 -0.21102295 17.02880859 -0.22705078 C19 0 19 0 21 2 C21.19856972 4.87342061 21.27828946 7.62861988 21.25 10.5 C21.25773437 11.28503906 21.26546875 12.07007813 21.2734375 12.87890625 C21.25330787 18.74669213 21.25330787 18.74669213 19 21 C17.15234375 21.25878906 17.15234375 21.25878906 14.9375 21.265625 C13.74253906 21.26949219 13.74253906 21.26949219 12.5234375 21.2734375 C11.69070313 21.26570313 10.85796875 21.25796875 10 21.25 C9.16726562 21.25773437 8.33453125 21.26546875 7.4765625 21.2734375 C6.67992187 21.27085937 5.88328125 21.26828125 5.0625 21.265625 C4.33160156 21.26336914 3.60070312 21.26111328 2.84765625 21.25878906 C1 21 1 21 -1 19 C-1.1721221 16.1293534 -1.23223075 13.36747658 -1.1875 10.5 C-1.18685547 9.71496094 -1.18621094 8.92992187 -1.18554688 8.12109375 C-1.14046848 2.28093696 -1.14046848 2.28093696 0 0 Z " fill="#61687F" transform="translate(246,283)"/>
<path d="M0 0 C1.27423828 -0.00193359 1.27423828 -0.00193359 2.57421875 -0.00390625 C3.91419922 0.00189453 3.91419922 0.00189453 5.28125 0.0078125 C6.17457031 0.00394531 7.06789062 0.00007813 7.98828125 -0.00390625 C8.83777344 -0.00261719 9.68726563 -0.00132812 10.5625 0 C11.34689453 0.00112793 12.13128906 0.00225586 12.93945312 0.00341797 C14.78125 0.1328125 14.78125 0.1328125 15.78125 1.1328125 C15.87985131 2.53629985 15.91203937 3.94461727 15.9140625 5.3515625 C15.91599609 6.62580078 15.91599609 6.62580078 15.91796875 7.92578125 C15.91410156 8.81910156 15.91023438 9.71242188 15.90625 10.6328125 C15.91205078 11.97279297 15.91205078 11.97279297 15.91796875 13.33984375 C15.91667969 14.18933594 15.91539062 15.03882813 15.9140625 15.9140625 C15.91293457 16.69845703 15.91180664 17.48285156 15.91064453 18.29101562 C15.78125 20.1328125 15.78125 20.1328125 14.78125 21.1328125 C11.79106839 21.25949014 8.83430892 21.31802088 5.84375 21.3203125 C5.00650391 21.33255859 4.16925781 21.34480469 3.30664062 21.35742188 C2.10491211 21.36032227 2.10491211 21.36032227 0.87890625 21.36328125 C0.14164307 21.36739014 -0.59562012 21.37149902 -1.35522461 21.37573242 C-3.21875 21.1328125 -3.21875 21.1328125 -5.21875 19.1328125 C-5.46166992 17.26928711 -5.46166992 17.26928711 -5.44921875 15.03515625 C-5.44728516 14.23400391 -5.44535156 13.43285156 -5.44335938 12.60742188 C-5.43111328 11.77017578 -5.41886719 10.93292969 -5.40625 10.0703125 C-5.40560547 9.22919922 -5.40496094 8.38808594 -5.40429688 7.52148438 C-5.34980524 0.00769282 -5.34980524 0.00769282 0 0 Z " fill="#5C647B" transform="translate(221.21875,282.8671875)"/>
<path d="M0 0 C1.27423828 -0.00193359 1.27423828 -0.00193359 2.57421875 -0.00390625 C3.91419922 0.00189453 3.91419922 0.00189453 5.28125 0.0078125 C6.17457031 0.00394531 7.06789062 0.00007812 7.98828125 -0.00390625 C8.83777344 -0.00261719 9.68726563 -0.00132812 10.5625 0 C11.34689453 0.00112793 12.13128906 0.00225586 12.93945312 0.00341797 C14.78125 0.1328125 14.78125 0.1328125 15.78125 1.1328125 C15.87985131 2.53629985 15.91203937 3.94461727 15.9140625 5.3515625 C15.91599609 6.62580078 15.91599609 6.62580078 15.91796875 7.92578125 C15.91410156 8.81910156 15.91023438 9.71242188 15.90625 10.6328125 C15.91205078 11.97279297 15.91205078 11.97279297 15.91796875 13.33984375 C15.91667969 14.18933594 15.91539062 15.03882813 15.9140625 15.9140625 C15.91293457 16.69845703 15.91180664 17.48285156 15.91064453 18.29101562 C15.78125 20.1328125 15.78125 20.1328125 14.78125 21.1328125 C11.79106839 21.25949014 8.83430892 21.31802088 5.84375 21.3203125 C5.00650391 21.33255859 4.16925781 21.34480469 3.30664062 21.35742188 C2.10491211 21.36032227 2.10491211 21.36032227 0.87890625 21.36328125 C0.14164307 21.36739014 -0.59562012 21.37149902 -1.35522461 21.37573242 C-3.21875 21.1328125 -3.21875 21.1328125 -5.21875 19.1328125 C-5.46166992 17.26928711 -5.46166992 17.26928711 -5.44921875 15.03515625 C-5.44728516 14.23400391 -5.44535156 13.43285156 -5.44335938 12.60742188 C-5.43111328 11.77017578 -5.41886719 10.93292969 -5.40625 10.0703125 C-5.40560547 9.22919922 -5.40496094 8.38808594 -5.40429688 7.52148438 C-5.34980524 0.00769282 -5.34980524 0.00769282 0 0 Z " fill="#5C647B" transform="translate(221.21875,253.8671875)"/>
</svg>
